<?xml version="1.0" encoding="UTF-8" standalone="yes"?>
<svg version="1.2" width="400.000000pt" height="400.000000pt" viewBox="0 0 400.000000 400.000000" preserveAspectRatio="xMidYMid meet" baseProfile="tiny-ps" xmlns="http://www.w3.org/2000/svg">
  <title>bimi-svg-tiny-12-ps</title>
  <g transform="translate(0.000000,400.000000) scale(0.100000,-0.100000)" fill="#000000" stroke="none">
    <path d="M901 3370 l0 -600 299 0 300 0 0 185 0 185 -52 24 c-131 59 -182 185&#xA;-122 304 78 156 299 165 395 15 37 -60 40 -143 8 -210 l-21 -44 208 -209 c115&#xA;-115 212 -210 217 -210 4 0 7 261 7 580 l0 580 -620 0 -620 0 1 -600z"/>
    <path d="M1608 3167 l-48 -21 0 -188 0 -188 262 0 263 0 -210 210 c-115 116&#xA;-212 210 -215 209 -3 -1 -26 -10 -52 -22z"/>
    <path d="M903 2008 l2 -603 295 0 295 0 3 603 2 602 -299 0 -300 0 2 -602z"/>
    <path d="M1560 2005 l0 -605 274 0 c151 0 281 3 290 6 14 6 16 68 16 605 l0&#xA;599 -290 0 -290 0 0 -605z"/>
    <path d="M2537 2400 c116 -115 216 -210 222 -210 7 0 24 8 38 18 19 12 47 17&#xA;98 17 59 0 78 -4 118 -28 26 -15 60 -47 75 -69 23 -36 27 -51 27 -118 0 -67&#xA;-4 -82 -28 -118 -43 -65 -97 -96 -178 -100 -56 -4 -76 0 -111 18 l-41 21 -216&#xA;-215 -215 -215 592 -1 592 -1 0 606 0 605 -592 0 -591 0 210 -210z"/>
    <path d="M2280 2005 l0 -570 220 220 c190 190 218 221 206 235 -40 45 -45 155&#xA;-11 221 l17 32 -216 216 -216 216 0 -570z"/>
    <path d="M903 648 l2 -603 615 0 615 0 2 585 3 584 -90 -89 c-49 -49 -86 -93&#xA;-83 -98 3 -6 2 -7 -4 -4 -13 8 -86 -67 -76 -78 5 -4 3 -5 -3 -2 -14 8 -117&#xA;-96 -107 -108 5 -4 3 -5 -3 -2 -6 3 -23 -7 -38 -22 l-28 -29 21 -40 c53 -104&#xA;7 -238 -99 -292 -116 -58 -253 -11 -307 107 -56 122 3 253 133 298 l39 13 3&#xA;191 2 191 -300 0 -300 0 3 -602z"/>
    <path d="M1560 1058 l0 -193 53 -17 52 -17 42 41 c23 23 39 46 36 51 -3 6 -1&#xA;7 5 3 12 -7 78 60 74 75 -1 6 1 8 6 5 8 -4 252 228 252 240 0 2 -117 4 -260 4&#xA;l-260 0 0 -192z"/>
  </g>
</svg>